<svg xmlns="http://www.w3.org/2000/svg" width="164" height="80" fill="none"><path d="M76.814 34.668h-1.739c-.773 0-1.417-.522-1.546-1.306l-.966-4.701c-.193-.979.515-1.959 1.546-1.959h.258c1.61 0 3.027 1.175 3.414 2.808l.644 3.2c.193.98-.58 1.959-1.61 1.959zm-21.129.849h-1.739c-.773 0-1.417-.522-1.546-1.306l-.966-4.701c-.193-.98.515-1.959 1.546-1.959h.258c1.61 0 3.027 1.175 3.414 2.808l.644 3.2c.129 1.045-.58 1.959-1.61 1.959z" fill="#ca8e59"/><path d="M141.87 41.85l-.386-.131s-.258-3.918-2.577-4.832c-8.374-3.787-21.385-5.224-35.427-6.007l-8.76-4.44c-4.122-2.09-8.438-3.591-12.947-4.44-.451.392-.837.784-1.16 1.11l-.129.131c4.573.718 9.018 2.155 13.334 4.375l8.631 5.159-47.729-1.633c.322-1.306-.644-2.547-1.932-2.547H41.515l-1.804 1.306-12.367.588c-1.095.065-2.126.588-2.77 1.436l-.322.392c.515 1.502.322 3.2-.644 5.158l-2.19 2.351c0 3.265 1.868 6.203 4.702 7.574l9.662 4.571 6.892 1.175 89.856.718 5.669-1.045c2.705-.522 4.702-2.873 4.702-5.681v-3.983c-.065-.588-.451-1.11-1.031-1.306z" fill="#e3e3e3"/><path d="M123.706 34.211c-7.471-1.175-16.811-1.437-16.811-1.437l-64.8-2.089-13.398.457c-1.159.065-2.254.588-2.963 1.437.129.588.129 1.241.129 1.894 4.058-.261 8.052-.196 11.916 1.698 2.19 1.045 4.767 2.612 6.248 4.767.129.065.258.131.451.196h.129v-1.371c21.256-1.502 46.055-1.175 79.293 0v3.33l14.557-3.918c.386-1.045-7.279-3.787-14.751-4.962zM112.37 44.397l-36.716-.522a13.29 13.29 0 0 0-4.444.784l-9.984 3.591c-.322.131-.322 1.045 0 1.045l47.537-.457c1.417 0 2.834-1.698 3.607-4.44z" fill="#fff"/><path d="M93.756 27.616c-3.865-1.959-7.794-3.33-11.852-4.114.451.849-.837 1.437-.837 1.567l.386.588c3.414.588 6.699 1.698 9.855 3.33l6.055 3.591 5.088.196-8.695-5.158z" fill="#3c3c3c"/><path d="M110.051 51.122c0-.653.064-1.241.128-1.894.902-7.117 5.669-11.688 12.175-11.688 6.183 0 10.756 4.179 11.594 10.709.129.98.129 1.959.129 2.938h-24.026v-.065zm-75.492.066c.258-8.162 5.797-14.365 12.883-14.365 6.312 0 11.465 5.224 11.465 11.623v.914 1.828H34.559z" fill="#e3e3e3"/><g fill="#d8d8d8"><path d="M104.447 50.731l-.644-.131a70.65 70.65 0 0 0 .773-13.778c-.837-1.828-1.675-3.069-3.478-4.114l.322-.588c1.932 1.175 2.898 2.612 3.736 4.506v.131c.322 4.571.064 9.272-.709 13.974z"/><path d="M111.277 51.318L71.664 50.6l-.064-.131c-.065-.065-5.668-8.489-4.123-18.805l.644.065c-1.353 9.337 3.221 17.043 3.929 18.153l39.292.653-.065.784zm-72.144-7.052l-4.767-4.44a7.23 7.23 0 0 0-5.024-2.024h-5.733v-.653h5.733c2.061 0 3.994.784 5.475 2.155l4.767 4.44-.451.522zm92.175 2.416l-.257-.588 1.868-.784c1.546-.653 3.156-.98 4.831-.98h5.153v.653h-5.153c-1.546 0-3.092.327-4.574.914l-1.868.784z"/></g><path d="M24.767 32.905h-.386c.258 1.371 0 2.873-.837 4.571l-.129.131h4.831c.709-2.351-1.031-4.701-3.478-4.701z" fill="#ae0018"/><path d="M24.314 35.647c-.129.588-.386 1.175-.709 1.828l-.129.131h4.831c.193-.653.193-1.371 0-1.959h-3.994z" fill="#ff8840"/><path d="M138.717 41.393h2.77c-.064-.718-.451-2.742-1.61-3.853h-3.607c-.645 0-1.096.718-.709 1.306l.644 1.11c.451.914 1.417 1.437 2.512 1.437z" fill="#c4f5f5"/><path d="M135.495 38.847h5.217c-.258-.457-.515-.98-.902-1.306h-3.607c-.644 0-1.03.718-.708 1.306z" fill="#fff"/><path d="M138.395 41.263c-.258-1.241-.58-2.873-1.61-3.722h-.515c-.645 0-1.096.718-.709 1.306l.644 1.11c.515.849 1.353 1.371 2.255 1.437-.065-.065-.065-.131-.065-.131z" fill="#ff8840"/><path d="M111.597 53.734c-.258-1.371-.322-2.873-.129-4.375.773-6.138 4.831-10.513 10.886-10.513 5.217 0 9.533 3.395 10.306 9.533.257 1.828.129 3.722-.258 5.485l-20.805-.131zm-75.812-1.763c0-.196.064-.457.064-.718.193-7.77 5.475-13.125 11.594-13.125 5.604 0 10.177 4.636 10.177 10.317 0 1.763.065 3.395-.193 4.767l-14.751-.065-6.892-1.175z" fill="#1d0000"/><path d="M47.438 57.391c4.874 0 8.825-4.005 8.825-8.946S52.312 39.5 47.438 39.5s-8.825 4.005-8.825 8.946 3.951 8.946 8.825 8.946z" fill="#736e68"/><g fill="#3c3c3c"><path d="M56.262 48.445c0 4.962-3.929 9.011-8.824 9.011s-8.825-3.983-8.825-8.946h17.649v-.065z"/><path d="M54.865 50.226c.973-4.176-1.578-8.361-5.698-9.348s-8.248 1.6-9.221 5.776 1.578 8.362 5.698 9.348 8.248-1.6 9.221-5.776z"/><path d="M55.104 48.38v.065c0 4.31-3.414 7.77-7.665 7.77s-7.665-3.461-7.665-7.77v-.065h15.33z"/></g><path d="M47.442 54.714c3.415 0 6.184-2.806 6.184-6.269s-2.769-6.268-6.184-6.268-6.184 2.807-6.184 6.268 2.768 6.269 6.184 6.269z" fill="#c4ccd9"/><path d="M47.44 42.177c3.414 0 6.184 2.808 6.184 6.268H41.191c0-3.461 2.77-6.268 6.248-6.268z" fill="#b0abab"/><path d="M51.175 48.445c0 2.09-1.675 3.852-3.8 3.852-2.061 0-3.8-1.698-3.8-3.852 0-2.09 1.675-3.852 3.8-3.852 2.126.065 3.8 1.763 3.8 3.852z" fill="#565657"/><path d="M122.293 57.391c4.874 0 8.825-4.005 8.825-8.946s-3.951-8.946-8.825-8.946-8.824 4.005-8.824 8.946 3.951 8.946 8.824 8.946z" fill="#736e68"/><g fill="#3c3c3c"><path d="M131.118 48.445c0 4.962-3.929 9.011-8.825 9.011s-8.824-3.983-8.824-8.946h17.649v-.065z"/><path d="M129.72 50.226c.973-4.176-1.578-8.361-5.698-9.348s-8.249 1.6-9.221 5.776 1.578 8.362 5.698 9.348 8.248-1.6 9.221-5.776z"/><path d="M129.959 48.38v.065c0 4.31-3.414 7.77-7.665 7.77s-7.665-3.461-7.665-7.77v-.065h15.33z"/></g><path d="M122.297 54.714c3.415 0 6.184-2.806 6.184-6.269s-2.769-6.268-6.184-6.268-6.184 2.807-6.184 6.268 2.769 6.269 6.184 6.269z" fill="#c4ccd9"/><path d="M122.295 42.177c3.414 0 6.184 2.808 6.184 6.268h-12.432c0-3.461 2.77-6.268 6.248-6.268z" fill="#b0abab"/><path d="M126.03 48.445c0 2.09-1.674 3.852-3.8 3.852-2.061 0-3.8-1.698-3.8-3.852 0-2.09 1.674-3.852 3.8-3.852 2.126.065 3.8 1.763 3.8 3.852z" fill="#565657"/><path d="M94.207 31.925l6.055.196-5.089-3.004-.966 2.808zm-24.609 4.244c.193.653 1.095 1.175 2.19 1.241s2.061-.392 2.319-1.045l-4.509-.196z" fill="#e3e3e3"/><path d="M69.66 35.19c.258-.653 1.224-1.11 2.319-1.045s1.997.588 2.19 1.241l-4.509-.196z" fill="#d8d8d8"/><path d="M91.498 31.925h2.512c.387 0 .644-.653.644-1.437 0-.718-.258-1.371-.58-1.437l-2.641-.914v3.787h.064z" fill="#e3e3e3"/><path d="M94.654 30.227c-.064-.653-.258-1.11-.58-1.241l-2.641-.914v2.089h3.221v.065z" fill="#fff"/><path d="M139.164 47.988c0 .979.515 1.828 1.095 1.828s1.095-.784 1.095-1.828c0-.98-.515-1.828-1.095-1.828-.644 0-1.095.784-1.095 1.828z" fill="#1d0000"/></svg>