<svg xmlns="http://www.w3.org/2000/svg" width="164" height="80" fill="none"><path d="M73.644 33.987h-1.756c-.787 0-1.393-.538-1.575-1.255l-.969-4.662c-.182-.956.545-1.913 1.575-1.913h.242c1.635 0 3.088 1.136 3.452 2.749l.666 3.168c.182.956-.606 1.913-1.635 1.913z" fill="#d39a66"/><path d="M58.505 35.421h-1.756c-.787 0-1.393-.538-1.575-1.255l-.969-4.662c-.182-.956.545-1.913 1.575-1.913h.242c1.635 0 3.089 1.136 3.452 2.749l.666 3.168c.121 1.016-.666 1.913-1.635 1.913z" fill="#613800"/><path d="M142.135 40.382s-.302-3.825-2.604-4.722c-8.478-3.766-21.619-5.14-35.911-5.917l-8.841-4.363C87.694 21.793 79.942 20 72.13 20h-2.483a59.75 59.75 0 0 0-20.226 3.526l-7.449 5.2-15.503.598c-1.09.06-2.12.538-2.846 1.435l-.303.359c.484 1.494.303 3.168-.666 5.081l-2.18 2.331c0 3.168 1.877 6.097 4.784 7.471l9.81 4.483 6.964 1.136 91.019.717 5.692-1.016c2.786-.478 4.784-2.869 4.784-5.619v-3.885c0-.598-.363-1.136-.969-1.315l-.424-.12zm-87.93-10.46s2.059-8.308 14.352-8.308l4.057-.06c7.509 0 14.473 1.494 21.135 4.901l8.781 5.081-48.325-1.614z" fill="#e3e3e3"/><path d="M87.455 22.391C82.247 20.658 76.796 20 72.133 20H69.65a59.75 59.75 0 0 0-20.226 3.526l-7.449 5.2 12.233 1.195c.06-.239 2.241-8.308 14.352-8.308l4.057-.06c4.602 0 9.023.598 13.262 1.793l1.575-.956z" fill="#d39a66"/><path d="M49.424 23.527l-7.449 5.2 12.233 1.195c0-.119.545-2.092 2.483-4.064-.787-.359-6.964-2.451-7.267-2.331z" fill="#b3815c"/><path d="M124.086 32.971c-7.57-1.136-17.017-1.434-17.017-1.434l-65.645-2.092-13.565.478c-1.151.06-2.241.538-3.028 1.435.121.598.182 1.255.121 1.853 4.118-.239 8.175-.179 12.051 1.674 2.241 1.016 4.845 2.57 6.359 4.722.121.06.303.119.424.179h.182v-1.255c21.559-1.434 46.69-1.136 80.36 0v3.287l14.776-3.885c.364-1.076-7.388-3.825-15.018-4.961zm-62.8 12.193l33.428.478c1.332 0 2.664.179 3.997.418l8.902 1.733c.303.06.242.478-.06.478l-43.178-1.136c-1.332 0-2.543-.777-3.089-1.973z" fill="#fff"/><path d="M68.557 21.614l4.057-.06c7.509 0 14.473 1.494 21.135 4.901l8.781 5.081-6.904-.179-6.116-3.586c-5.268-2.63-10.779-3.825-16.653-3.825l-2.725.06c-5.571.359-10.295 6.097-10.295 6.097l-5.571-.179c-.061 0 1.998-8.308 14.292-8.308z" fill="#404752"/><path d="M110.279 49.647c0-.598.06-1.255.121-1.853.908-6.993 5.753-11.536 12.293-11.536 6.298 0 10.901 4.124 11.748 10.52.122.956.182 1.913.122 2.869h-24.284zm-76.484.06c.242-8.069 5.814-14.166 13.02-14.166 6.419 0 11.627 5.14 11.627 11.476v.897 1.853H33.795v-.06z" fill="#e3e3e3"/><g fill="#d8d8d8"><path d="M104.588 49.228l-.606-.12c.727-4.543.969-9.085.727-13.568-.848-1.793-1.696-3.048-3.512-4.065l.302-.538c1.999 1.136 2.907 2.57 3.816 4.423v.12c.302 4.543.06 9.145-.727 13.748z"/><path d="M111.553 49.826l-40.15-.657-.061-.179c-.061-.06-5.753-8.368-4.178-18.529l.606.06c-1.393 9.205 3.331 16.915 3.997 17.991l39.848.657-.061.657z"/></g><path d="M38.398 42.893l-4.845-4.423c-1.393-1.255-3.21-1.972-5.087-1.972h-5.814V35.9h5.814c2.059 0 3.997.777 5.511 2.152l4.845 4.423-.424.418zm93.442 2.331l-.242-.538 1.877-.777a12.51 12.51 0 0 1 4.845-.956h5.208v.598h-5.208a12.13 12.13 0 0 0-4.602.897l-1.878.777z" fill="#e3e3e3"/><path d="M23.862 31.656h-.363c.303 1.315 0 2.809-.848 4.483l-.121.179h4.845c.727-2.331-1.029-4.662-3.512-4.662z" fill="#d10018"/><path d="M23.378 34.405c-.182.598-.363 1.195-.727 1.793l-.121.179h4.845c.182-.657.182-1.315.061-1.972h-4.057z" fill="#ff1418"/><path d="M139.35 40.083h2.785c-.121-.717-.484-2.69-1.635-3.825h-3.633c-.666 0-1.09.717-.727 1.315l.666 1.076c.485.837 1.454 1.435 2.544 1.435z" fill="#c4f5f5"/><path d="M136.077 37.573h5.268c-.242-.478-.545-.956-.908-1.315h-3.633c-.667 0-1.09.717-.727 1.315z" fill="#fff"/><path d="M138.984 39.904c-.243-1.195-.606-2.809-1.635-3.646h-.545c-.667 0-1.09.717-.727 1.315l.666 1.076c.485.837 1.332 1.315 2.301 1.435-.06-.12-.06-.12-.06-.179z" fill="#ff8840"/><path d="M108.827 37.334h5.027a1.08 1.08 0 0 0 .969-.598l.181-.359c.121-.299-.06-.657-.424-.657l-7.267-.179.424 1.016c.182.478.606.777 1.09.777z" fill="#4a2c2c"/><path d="M111.854 52.217a14.54 14.54 0 0 1-.122-4.304c.788-6.097 4.906-10.4 11.022-10.4 5.329 0 9.629 3.347 10.477 9.384.242 1.793.121 3.706-.243 5.439l-21.134-.119zm-76.786-1.733c0-.239.061-.478.061-.717.242-7.651 5.511-12.911 11.748-12.911 5.692 0 10.295 4.543 10.295 10.161 0 1.733.061 3.347-.182 4.722l-14.958-.12-6.964-1.136z" fill="#1d0000"/><path d="M55.543 49.044c1.13-4.757-1.861-9.517-6.68-10.632s-9.642 1.836-10.772 6.593 1.861 9.517 6.68 10.632 9.642-1.836 10.772-6.593z" fill="#736e68"/><g fill="#3c3c3c"><path d="M55.777 47.017c0 4.901-3.997 8.846-8.963 8.846s-8.963-3.945-8.963-8.846h17.925z"/><path d="M46.814 54.727c4.314 0 7.812-3.452 7.812-7.711s-3.498-7.711-7.812-7.711-7.812 3.452-7.812 7.711 3.498 7.711 7.812 7.711z"/><path d="M54.626 46.957v.12c0 4.244-3.512 7.711-7.812 7.711s-7.812-3.467-7.812-7.711v-.12h15.624z"/></g><path d="M52.972 48.339c.735-3.356-1.426-6.664-4.826-7.389s-6.751 1.407-7.486 4.763 1.426 6.664 4.826 7.389 6.751-1.407 7.486-4.763z" fill="#c4ccd9"/><path d="M46.814 40.801c3.452 0 6.298 2.809 6.298 6.216H40.516c0-3.407 2.846-6.216 6.298-6.216z" fill="#b0abab"/><path d="M50.63 47.017c0 2.092-1.696 3.766-3.815 3.766s-3.815-1.674-3.815-3.766 1.696-3.766 3.815-3.766 3.815 1.674 3.815 3.766z" fill="#565657"/><path d="M129.085 53.261c3.501-3.455 3.501-9.056 0-12.51a9.05 9.05 0 0 0-12.674 0c-3.501 3.455-3.501 9.056 0 12.51a9.05 9.05 0 0 0 12.674 0z" fill="#736e68"/><g fill="#3c3c3c"><path d="M131.723 47.017c0 4.901-3.997 8.846-8.963 8.846s-8.962-3.945-8.962-8.846h17.925z"/><path d="M122.756 54.727c4.315 0 7.812-3.452 7.812-7.711s-3.497-7.711-7.812-7.711-7.812 3.452-7.812 7.711 3.498 7.711 7.812 7.711z"/><path d="M130.508 46.957v.12c0 4.244-3.513 7.71-7.812 7.71s-7.752-3.526-7.752-7.77v-.12h15.564v.06z"/></g><path d="M127.201 51.401a6.16 6.16 0 0 0 0-8.791 6.36 6.36 0 0 0-8.907 0 6.16 6.16 0 0 0 0 8.791 6.36 6.36 0 0 0 8.907 0z" fill="#c4ccd9"/><path d="M122.753 40.801c3.452 0 6.298 2.809 6.298 6.216h-12.596c0-3.407 2.785-6.216 6.298-6.216z" fill="#b0abab"/><path d="M122.757 50.783c2.107 0 3.815-1.686 3.815-3.766s-1.708-3.766-3.815-3.766-3.815 1.686-3.815 3.766 1.708 3.766 3.815 3.766z" fill="#565657"/><path d="M140.499 48.75c.666 0 1.211-.538 1.211-1.196v-.777c0-.538-.424-1.016-.969-1.136l-1.998-.299c-.666-.12-1.211.359-1.09.837l.181.837c.243.956 1.393 1.733 2.665 1.733z" fill="#4a2c2c"/><path d="M94.234 30.699l6.116.239-5.147-2.989-.969 2.75z" fill="#777f7c"/><path d="M68.74 21.614l1.211-.06-1.453 8.846-2.301-.06 2.543-8.727z" fill="#404752"/><path d="M69.285 34.943c.182.657 1.151 1.195 2.241 1.195 1.151.06 2.059-.418 2.362-1.016l-4.602-.179z" fill="#e3e3e3"/><path d="M69.348 33.927c.242-.657 1.211-1.076 2.362-1.016s2.059.538 2.241 1.195l-4.602-.179z" fill="#777f7c"/><path d="M91.087 30.699h3.815c.545 0 1.029-.418 1.029-1.016a.97.97 0 0 0-.848-.956l-3.997-.598v2.57z" fill="#fff"/><path d="M95.931 29.563c-.061-.418-.424-.777-.848-.837l-3.997-.598v1.435h4.845z" fill="#dbffd6"/><path d="M140.016 47.196c0 .658.303 1.136.727 1.136.363 0 .726-.538.726-1.136s-.302-1.136-.726-1.136-.727.538-.727 1.136z" fill="#c4f5f5"/></svg>