<svg xmlns="http://www.w3.org/2000/svg" xmlns:xlink="http://www.w3.org/1999/xlink" width="164" height="80" fill="none"><path d="M142.126 44.638l-.694-.637-1.389-3.704c-.753-2.083-2.373-3.704-4.398-4.572l-10.533-4.398-14.872-10.59c-3.704-2.662-8.16-4.167-12.732-4.282-20.833-.694-42.592-.636-64.872.463-2.083.116-3.819 1.62-4.282 3.646l-2.546 12.037c-.289 1.447-.463 2.951-.463 4.456v14.005l-1.91 1.794a2.18 2.18 0 0 0-.637 1.736l.116.926a1.36 1.36 0 0 0 1.215 1.215l14.641 1.389h91.84l7.06-1.447c3.125-.868 5.324-3.704 5.324-7.002v-3.009c0-.752-.289-1.505-.868-2.026zM85.645 33.412l-50.231-.81c-.752 0-1.389-.694-1.273-1.447l1.331-10.995c.058-.636.579-1.099 1.215-1.157 11.285-.463 22.049-.347 33.623-.347l15.336.174c.694 0 1.273.579 1.273 1.331v11.979c.058.694-.521 1.273-1.273 1.273zm30.729.463l-25.579-.405-.752-14.583 8.507.289c3.472.116 7.639 2.257 10.185 4.34l7.639 6.539v3.819z" fill="#e3e3e3"/><g fill="#fff"><path d="M131.42 35.726l-10.533-4.398-.347-.289h-4.224v2.778l-25.579-.405-.058-.579c-.058-.984-.868-1.794-1.91-1.794h-.868c-.579 0-.984.463-.984.984a1.31 1.31 0 0 1-1.331 1.331l-50.231-.81c-.752 0-1.389-.694-1.273-1.447h-6.423c-.868 0-1.678.637-1.852 1.505-.289 1.447-.463 2.546-.463 4.051l109.664 2.083c-.868-1.331-2.084-2.373-3.588-3.009z"/><path opacity=".69" d="M28.467 20.622h6.944l.058-.463c.058-.636.579-1.099 1.215-1.157 11.285-.463 22.048-.347 33.623-.347l15.336.174c.694 0 1.273.579 1.273 1.331a.52.52 0 0 0 .521.521h.926c.926 0 1.678-.81 1.62-1.736l8.391.289h9.317c-3.125-1.678-6.598-2.604-10.185-2.72-20.833-.694-42.592-.637-64.872.463-2.083.116-3.819 1.62-4.282 3.646.058-.058.058 0 .116 0z"/></g><path opacity=".69" d="M110.239 20.738c-.752-.521-1.562-1.042-2.373-1.447h-1.62c2.025 1.215 4.051 2.836 5.44 3.935l7.639 6.539 1.099 1.1 4.398.289-14.583-10.417z" fill="#433848"/><path d="M50.691 51.062H25.286l-1.852 1.794a2.18 2.18 0 0 0-.637 1.736l.116.926a1.36 1.36 0 0 0 1.215 1.215l14.641 1.389h11.863v-7.06h.058zm91.435-6.424l-.694-.637-1.505-3.935h-7.233v5.556a2.15 2.15 0 0 1-1.158 1.91l-6.481 3.53v7.06h5.555l7.06-1.447c3.125-.868 5.324-3.704 5.324-7.002v-3.009c0-.752-.289-1.505-.868-2.025z" fill="#404752"/><path d="M142.994 49.962l-6.134-.695a1.11 1.11 0 0 1-.984-.984l-.231-1.331c0-.174 0-.347.115-.463s.29-.231.463-.231h6.829v.579h-6.829l.232 1.389c.058.231.231.463.521.463l6.134.694-.116.579z" fill="#4d5254"/><path d="M116.37 30.055l-7.639-6.539c-2.604-2.083-6.713-4.224-10.185-4.34l-8.507-.289.058 1.042 5.382.174c3.009.116 6.597 1.91 8.854 3.762l6.597 5.671v3.299l-15.972-.289c.058-.231.116-.463.058-.694l-.579-2.662c-.289-1.331-1.447-2.315-2.836-2.315h-.174a1.18 1.18 0 0 0-.868.347l.231 4.282.058.984.058.926h1.215.174.752l23.496.405v-3.762h-.174zM85.701 18.828l-15.336-.174c-11.574 0-22.338-.174-33.623.347-.637 0-1.157.521-1.273 1.157l-1.331 10.938c-.116.752.521 1.447 1.273 1.505l50.173.81a1.31 1.31 0 0 0 1.331-1.331V20.101c.058-.695-.521-1.273-1.215-1.273zM61.28 31.27a.79.79 0 0 1-.81.81l-17.072-.289a1.39 1.39 0 0 0 .116-.868l-.579-2.662c-.289-1.331-1.389-2.257-2.778-2.315l.636-5.093c.058-.521.463-.868.984-.926 6.308-.289 12.442-.289 18.692-.289a.79.79 0 0 1 .81.81V31.27zm24.132.405c0 .405-.347.752-.752.752l-16.377-.232c.347-.289.521-.752.405-1.273l-.579-2.662c-.289-1.331-1.447-2.315-2.836-2.315h-.174c-.116 0-.289 0-.405.058v-5.44a.89.89 0 0 1 .868-.868h5.44l13.657.116c.405 0 .752.347.752.752v11.111z" fill="#ca8e59"/><path d="M141.085 43.134l-1.1-2.836c-.231-.637-.521-1.157-.926-1.736h-6.481v4.572h8.507z" fill="#fff"/><path d="M134.836 38.562h-2.199v4.572h3.646c-.116-1.215-.637-3.53-1.447-4.572z" fill="#c4ccd9"/><path d="M141.083 43.423h-7.986c-.405 0-.695-.347-.695-.694v-3.704c0-.405.348-.695.695-.695h6.018v.579h-6.018c-.058 0-.116.058-.116.116v3.704c0 .058.058.116.116.116h7.986v.579z" fill="#4d5254"/><path d="M118.05 56.444H58.675a1.16 1.16 0 0 1-1.157-1.157V34.048l-22.222-.289c-.637 0-1.273-.289-1.736-.81s-.637-1.157-.521-1.852l1.447-10.995c.174-1.099 1.042-1.968 2.199-1.968 10.822-.405 21.701-.405 31.25-.405h2.431c8.912 0 18.055.174 27.141.463 4.398.174 8.97 1.91 12.095 4.688l7.986 6.829c.231.231.405.521.405.81l.058 25.926zM67.934 18.076c-9.549 0-20.37 0-31.192.463-.926.058-1.678.752-1.794 1.678l-1.447 10.995c-.058.579.116 1.1.463 1.505s.868.637 1.447.637l22.569.289v21.586c0 .405.347.752.752.752h59.028l-.232-25.521c0-.232-.116-.405-.231-.521l-7.987-6.829c-3.067-2.72-7.523-4.398-11.863-4.572-9.086-.289-18.229-.463-27.083-.463h-2.431z" fill="#d8d8d8"/><g fill="#e3e3e3"><path d="M112.09 26.93v6.481l3.877.116v-3.299l-3.877-3.299z"/><path d="M109.547 32.254h1.794a1.43 1.43 0 0 0 1.447-1.447v-3.125a1.43 1.43 0 0 0-1.447-1.447h-1.794v6.018z"/></g><path opacity=".69" d="M112.729 27.74a1.43 1.43 0 0 0-1.447-1.447h-1.794v1.447h3.241z" fill="#fff"/><path d="M25.371 36.369l-.011.579 107.328 2.137.012-.578-107.328-2.137z" fill="#e3e3e3"/><path d="M88.356 18.075l-.579.002.123 38.136.579-.002-.123-38.136z" fill="#d8d8d8"/><path d="M57.637 17.932l-.219 15.971.579.008.219-15.971-.579-.008z" fill="#e3e3e3"/><path opacity=".69" d="M36.397 50.831c.347 0 .637-.174.81-.405 1.91-3.009 5.266-5.035 9.086-5.035s7.176 2.025 9.086 5.035c.174.289.463.405.81.405.752 0 1.215-.81.81-1.447-2.257-3.53-6.192-5.845-10.648-5.845a12.68 12.68 0 0 0-10.648 5.845c-.521.579-.058 1.447.694 1.447zm94.097-3.183c.52-.289.52-.984.057-1.389a12.53 12.53 0 0 0-7.87-2.778 12.68 12.68 0 0 0-10.648 5.845c-.405.637.058 1.447.81 1.447a1.01 1.01 0 0 0 .81-.405c1.91-3.009 5.267-5.035 9.086-5.035 2.43 0 4.687.81 6.481 2.199.29.347.811.347 1.274.116-.058 0-.058 0 0 0z" fill="#fff"/><path d="M56.827 58.122a11.28 11.28 0 0 0 .174-1.968c0-5.903-4.803-10.764-10.764-10.764-5.903 0-10.764 4.803-10.764 10.764 0 .579.058 1.157.116 1.678l3.183.289h18.055zm65.855-12.731c-5.903 0-10.764 4.803-10.764 10.764a10.8 10.8 0 0 0 .174 1.968h18.518l2.662-.521c.058-.463.116-.984.116-1.447 0-5.961-4.803-10.764-10.706-10.764z" fill="#1d0000"/><path d="M46.237 65.009c4.89 0 8.854-3.964 8.854-8.854S51.127 47.3 46.237 47.3s-8.854 3.964-8.854 8.854 3.964 8.854 8.854 8.854z" fill="#736e68"/><g fill="#3c3c3c"><path d="M37.383 56.097c0 4.919 3.935 8.854 8.854 8.854 4.861 0 8.854-3.935 8.854-8.854H37.383z"/><use xlink:href="#B"/><path d="M38.598 56.039v.116c0 4.225 3.414 7.697 7.697 7.697s7.697-3.414 7.697-7.697v-.116H38.598z"/></g><path d="M46.235 62.347c3.42 0 6.192-2.772 6.192-6.192s-2.772-6.192-6.192-6.192-6.192 2.772-6.192 6.192 2.772 6.192 6.192 6.192z" fill="#c4ccd9"/><path d="M46.235 49.904a6.2 6.2 0 0 0-6.192 6.192h12.442c0-3.414-2.778-6.192-6.25-6.192z" fill="#b0abab"/><path d="M46.238 59.916c2.078 0 3.762-1.684 3.762-3.761s-1.684-3.762-3.762-3.762-3.762 1.684-3.762 3.762a3.76 3.76 0 0 0 3.762 3.761z" fill="#565657"/><path d="M122.682 65.009c4.89 0 8.854-3.964 8.854-8.854s-3.964-8.854-8.854-8.854-8.854 3.964-8.854 8.854 3.964 8.854 8.854 8.854z" fill="#736e68"/><g fill="#3c3c3c"><path d="M113.828 56.097c0 4.919 3.935 8.854 8.854 8.854 4.861 0 8.854-3.935 8.854-8.854h-17.708z"/><use xlink:href="#B" x="76.445"/><path d="M114.988 56.039v.116c0 4.225 3.415 7.697 7.697 7.697 4.225 0 7.697-3.414 7.697-7.697v-.116h-15.394z"/></g><path d="M122.68 62.347c3.42 0 6.192-2.772 6.192-6.192s-2.772-6.192-6.192-6.192-6.192 2.772-6.192 6.192 2.773 6.192 6.192 6.192z" fill="#c4ccd9"/><path d="M122.68 49.904a6.2 6.2 0 0 0-6.192 6.192h12.442c-.058-3.414-2.835-6.192-6.25-6.192z" fill="#b0abab"/><path d="M122.683 59.916c2.078 0 3.762-1.684 3.762-3.761s-1.684-3.762-3.762-3.762a3.76 3.76 0 1 0 0 7.523z" fill="#565657"/><path opacity=".69" d="M60.008 50.425h48.842c.347 0 .637.289.637.637s-.29.636-.637.636H60.008c-.347 0-.637-.289-.637-.636s.289-.637.637-.637z" fill="#fff"/><path d="M60.008 50.425h48.842c.347 0 .637-.289.637-.636s-.29-.637-.637-.637H60.008c-.347 0-.637.289-.637.637s.289.636.637.636z" fill="#e3e3e3"/><path opacity=".69" d="M91.027 38.851c.174.637.868 1.1 1.736 1.1s1.563-.463 1.736-1.1h-3.472z" fill="#fff"/><path d="M91.027 37.926c.174-.637.868-1.1 1.736-1.1s1.563.463 1.736 1.1h-3.472z" fill="#e3e3e3"/><path opacity=".69" d="M81.824 38.851c.174.637.868 1.1 1.736 1.1s1.563-.463 1.736-1.1h-3.472z" fill="#fff"/><path d="M81.824 37.926c.174-.637.868-1.1 1.736-1.1s1.563.463 1.736 1.1h-3.472z" fill="#e3e3e3"/><path d="M33.617 37.462l24.074.521v.695l-24.074-.521v-.694z" fill="#565657"/><path d="M85.702 18.828l-15.336-.174c-11.574 0-22.338-.174-33.623.347-.636 0-1.157.521-1.215 1.157l-1.331 10.995c-.116.752.521 1.447 1.273 1.447l50.231.81c.752 0 1.331-.579 1.331-1.273V20.101c-.058-.695-.637-1.273-1.331-1.273zM35.065 31.618c-.058-.058-.174-.232-.116-.405l1.331-10.995c.058-.231.231-.463.521-.463 6.134-.289 15.856-.347 18.692-.347.405 0 .752.347.752.752l-.116 11.227c0 .405-.347.752-.81.752l-19.965-.347c-.116 0-.232-.116-.289-.174zm51.157.463a.52.52 0 0 1-.521.521l-24.363-.405c-.463 0-.81-.405-.81-.868l.116-11.111a.89.89 0 0 1 .868-.868h2.199 6.713l15.335.174a.52.52 0 0 1 .521.521v12.037h-.058z" fill="#3d2e33"/><path d="M57.637 18.627l-.223 14.293.579.009.223-14.293-.579-.009z" fill="#726366"/><defs ><path id="B" d="M46.24 63.851a7.7 7.7 0 0 0 7.697-7.697 7.7 7.7 0 0 0-7.697-7.697 7.7 7.7 0 0 0-7.697 7.697 7.7 7.7 0 0 0 7.697 7.697z"/></defs></svg>