<svg xmlns="http://www.w3.org/2000/svg" width="164" height="80" fill="none"><path d="M141.64 44.322l-1.695-.547c-.492-.164-.766-.602-.711-1.094l.766-5.033c.164-1.477-.11-2.899-1.422-3.501-2.625-1.422-10.336-3.228-17.172-3.665l-8.531-.602-9.625-6.51C98.547 20.196 92.969 18.5 87.227 18.5h-8.859c-1.148 0-2.133.766-2.352 1.86l-1.805 9.683-48.561-.766-.437.547a5.1 5.1 0 0 0-.93 2.681c-.055 3.72.109 7.331.547 10.723l-1.586.602c-.328.109-.492.438-.437.766l.328 2.462c.164 1.204 1.094 2.188 2.297 2.352l13.179 2.517 89.029 1.587 11.156-1.039c1.368-.109 2.461-1.204 2.68-2.571l.656-4.486c.11-.438-.109-.875-.492-1.094zM81.813 30.864c-.82-.055-1.477-.766-1.367-1.587l.766-7.495c.055-.711.656-1.258 1.422-1.258h4.648c4.539 0 8.969 1.587 12.742 4.541l6.508 5.142c.546.438.875.985 1.039 1.696v.109l-25.758-1.149z" fill="#e3e3e3"/><path d="M79.682 21.728c.711 0 1.422-.273 1.914-.821.273-.273.656-.438 1.039-.438h4.648c2.352 0 4.703.438 6.945 1.258h6.344c-4.157-2.079-8.695-3.228-13.344-3.228h-8.859c-1.148 0-2.133.766-2.352 1.86-.164.711.383 1.368 1.094 1.368h2.57z" fill="#fff"/><path d="M44.625 51.106v.93l70.163 1.258V52.09l-70.163-.985z" fill="#736e68"/><path d="M105.711 45.197l-8.75-1.258-22.203-.492a.63.63 0 0 0-.656.657.63.63 0 0 0 .656.657l31.007.547c.055.055.055-.055-.054-.109zm-34.288-1.805l-6.781-.164-4.156.985c-.109 0-.109.164 0 .219l10.937.328a.63.63 0 0 0 .656-.657c0-.383-.273-.711-.656-.711z" fill="#fff"/><path d="M107.514 31.849c-.164-.657-.492-1.258-1.039-1.696l-6.508-5.142c-3.773-2.954-8.203-4.541-12.742-4.541h-4.648c-.711 0-1.312.547-1.422 1.258l-.766 7.495c-.109.821.547 1.587 1.367 1.587l25.757 1.094v-.055zm-21.929-1.641c0-1.094-.328-2.352-.766-3.392-.547-1.204-1.641-1.805-2.734-1.587l.273-2.735c.055-.602.547-1.04 1.148-1.04h3.883c3.773 0 7.437 1.313 10.609 3.775l5.414 4.267c.437.328.765.821.875 1.368v.109l-18.703-.766z" fill="#d39a66"/><path d="M73.994 31.028v-1.04l-48.343-.711-.437.547c-.219.383 48.78 1.204 48.78 1.204zm67.648 13.294l-1.695-.547c-.492-.164-.766-.602-.711-1.094l.765-5.744-3.007.109c-1.422.055-2.735.711-3.555 1.805l-5.742 7.386v7.276l11.32-1.039a2.74 2.74 0 0 0 2.516-2.407l.656-4.65a1.11 1.11 0 0 0-.547-1.094z" fill="#736e68"/><path d="M141.641 44.322l-1.695-.547c-.219-.055-.383-.219-.492-.383h-5.305a1.1 1.1 0 0 0-1.094 1.094c.766.711 4.922 1.258 9.078 1.094v-.109c.11-.492-.109-.93-.492-1.149z" fill="#a2a2a2"/><path d="M136.171 37.648l-.273-.602c-.329-.711-.985-1.258-1.75-1.422-5.688-1.477-12.633-2.352-20.617-2.517-1.859-.164-3.883-2.9-3.937-3.009l.437-.328s1.914 2.681 3.555 2.79c8.038.164 15.038 1.039 20.726 2.517.929.219 1.695.875 2.078 1.751l.273.602-.492.219z" fill="#e3e3e3"/><path d="M33.197 51.16l5.414.711 17.937.274v-1.422c.055-6.456-5.086-11.707-11.539-11.817H44.9c-6.398.109-11.648 5.307-11.703 11.653v.219.383z" fill="#1d0000"/><path d="M112.107 40.766a.67.67 0 0 1-.546-.274.76.76 0 0 1 .054-1.039c2.735-2.352 6.18-3.665 9.789-3.665h.164c3.227.055 6.344 1.094 8.914 3.064.328.273.383.711.164 1.04-.273.328-.711.383-1.039.164-2.297-1.751-5.086-2.735-7.984-2.735h-.109c-3.227 0-6.344 1.204-8.805 3.337-.273.055-.437.109-.602.109zm-76.174 0c-.219 0-.437-.109-.547-.274a.76.76 0 0 1 .055-1.039c2.734-2.352 6.18-3.665 9.789-3.665h.164c3.227.055 6.344 1.094 8.914 3.064.328.273.383.711.164 1.04a.78.78 0 0 1-1.094.109c-1.859-1.532-3.992-2.735-6.398-2.735h-1.75c-3.226 0-6.344 1.204-8.804 3.337-.164.11-.328.164-.492.164z" fill="#fff"/><path d="M109.76 53.185l17.937.273 5.414-.492v-2.188a11.71 11.71 0 0 0-11.539-11.817h-.11c-6.343 0-11.593 5.197-11.648 11.543v.219 2.462h-.054z" fill="#1d0000"/><path d="M35.276 50.723c-.656 6.127 4.375 11.27 10.5 10.723 4.539-.383 8.203-4.048 8.75-8.534.656-6.127-4.375-11.27-10.5-10.723-4.594.383-8.258 3.994-8.75 8.534z" fill="#736e68"/><g fill="#3c3c3c"><path d="M35.167 51.653c-.055 5.361 4.211 9.738 9.57 9.793 5.359.109 9.734-4.212 9.789-9.574l-19.359-.219z"/><path d="M36.535 50.613a8.41 8.41 0 0 0 9.351 9.519c3.719-.438 6.781-3.392 7.328-7.167a8.41 8.41 0 0 0-9.351-9.519c-3.773.438-6.781 3.447-7.328 7.167z"/><path d="M36.477 51.598c-.109 4.705 3.664 8.534 8.312 8.589s8.476-3.72 8.476-8.425l-16.789-.164z"/></g><path d="M39.321 50.777c-.656 3.83 2.57 7.167 6.453 6.565 2.352-.383 4.265-2.243 4.648-4.541.656-3.829-2.57-7.167-6.453-6.565-2.351.383-4.265 2.243-4.648 4.541z" fill="#c4ccd9"/><path d="M44.899 46.182c-3.117-.055-5.687 2.462-5.687 5.58l11.265.109c.055-3.118-2.461-5.69-5.578-5.69z" fill="#b0abab"/><path d="M40.907 50.996c-.547 2.845 1.859 5.307 4.703 4.759 1.586-.273 2.898-1.532 3.172-3.118.547-2.845-1.859-5.307-4.703-4.76-1.531.274-2.844 1.532-3.172 3.118z" fill="#565657"/><path d="M122.785 61.235c5.291-.763 8.963-5.672 8.2-10.965a9.68 9.68 0 0 0-10.961-8.204c-5.291.763-8.962 5.672-8.2 10.965s5.67 8.966 10.961 8.204z" fill="#736e68"/><g fill="#3c3c3c"><path d="M111.725 51.543c-.054 5.361 4.211 9.738 9.57 9.793s9.735-4.212 9.789-9.574l-19.359-.219z"/><path d="M123.311 59.859a8.43 8.43 0 0 0 6.291-10.117c-1.056-4.532-5.584-7.349-10.114-6.293s-7.346 5.586-6.29 10.118 5.584 7.349 10.113 6.293z"/><path d="M112.983 51.489v.11c-.055 4.65 3.664 8.425 8.312 8.48s8.422-3.665 8.477-8.315v-.109l-16.789-.164z"/></g><path d="M115.775 51.598c-.055 3.118 2.461 5.69 5.578 5.69 3.117.055 5.687-2.462 5.687-5.58.055-3.118-2.46-5.69-5.578-5.69a5.7 5.7 0 0 0-5.687 5.58z" fill="#c4ccd9"/><path d="M121.462 46.018c-3.118-.055-5.688 2.462-5.688 5.58l11.266.109c.054-3.064-2.461-5.635-5.578-5.69z" fill="#b0abab"/><path d="M117.36 51.653c0 2.243 1.75 4.048 3.992 4.048s4.047-1.751 4.047-3.994-1.75-4.048-3.992-4.048c-2.188 0-3.992 1.751-4.047 3.994z" fill="#565657"/><path d="M28.657 39.562v-4.65c0-1.204-.984-2.134-2.133-2.134h-2.187c-.055 3.064 0 5.963.328 8.808h2.023c1.094-.055 1.969-.93 1.969-2.024z" fill="#d10018"/><path d="M28.658 36.553v-1.805h-4.375l.055 1.805h4.32zm-4.264 1.259l.109 1.86h4.156v-1.86h-4.265z" fill="#ff1418"/><path opacity=".69" d="M112.931 29.879l-9.68-6.51c-1.914-1.258-3.937-2.298-6.07-3.064h-1.859c3.719 1.751 9.679 5.69 14.492 9.574h3.117z" fill="#433848"/><path d="M106.916 52.583l-.547-.164.328-1.149-25.484-.547c-1.75-.055-3.227-1.313-3.445-3.064-.711-4.978-.766-10.066-.164-15.044l1.367-11.051c.164-1.368 1.313-2.407 2.68-2.407h5.633c4.867 0 9.515 1.641 13.507 4.814l6.508 5.142c.765.602 1.312 1.477 1.476 2.407.984 6.51.383 13.567-1.859 21.062zm-25.32-32.824c-1.094 0-2.023.821-2.133 1.915l-1.312 11.051a56.49 56.49 0 0 0 .164 14.88c.219 1.477 1.477 2.571 2.953 2.626l25.648.547c1.804-6.839 2.297-13.239 1.367-19.093-.164-.821-.656-1.532-1.313-2.079l-6.507-5.142c-3.883-3.064-8.476-4.705-13.179-4.705h-5.687z" fill="#e3e3e3"/><path d="M102.812 31.247l4.046.164c-.164-.328-.383-.656-.711-.875l-3.335-2.626v3.337z" fill="#a2a2a2"/><path d="M28.276 43.392l-3.391-.164-1.586.602c-.328.109-.492.438-.437.766l.328 2.462c.164 1.204 1.094 2.188 2.297 2.352l5.523.711-1.422-5.744c-.219-.547-.711-.985-1.312-.985z" fill="#736e68"/><path d="M139.395 41.751l.602-4.869-3.281.109c-1.258.055-2.407.656-3.172 1.641l-.383.547c-.82 1.039-.055 2.571 1.258 2.571h4.976z" fill="#fff"/><path opacity=".23" d="M139.78 38.687l.219-1.751-3.282.109c-1.257.055-2.406.657-3.171 1.641h6.234z" fill="#00659a"/><path d="M136.114 37.101c-.984.164-1.914.711-2.57 1.532l-.383.547c-.82 1.039-.055 2.571 1.258 2.571h1.695v-4.65z" fill="#ea5e2a"/><path d="M73.282 52.583c-1.312-7.221-.547-14.498.438-22.594l.547.055c-.984 8.042-1.75 15.263-.437 22.43l-.547.109z" fill="#d8d8d8"/><path d="M85.587 35.514l-4.484-.219c-.547-.055-.984-.492-.93-1.039 0-.547.438-.93.984-.93l4.484.219c.273 0 .492.109.711.328.164.219.273.438.273.711-.055.492-.492.93-1.039.93zm-4.375-1.751c-.273 0-.492.219-.547.492 0 .109.055.274.109.383.109.109.219.164.328.164l4.43.219a.49.49 0 0 0 .492-.492c0-.109-.055-.274-.109-.383-.109-.109-.219-.164-.328-.164l-4.375-.219zm-15.477 6.62h-3.937c-.82 0-1.422-.657-1.422-1.422V37.21a1.41 1.41 0 0 1 1.422-1.422h3.937c.82 0 1.422.657 1.422 1.422v1.751c0 .766-.602 1.422-1.422 1.422zm-3.937-4.158a.92.92 0 0 0-.93.93v1.751a.92.92 0 0 0 .93.93h3.937a.92.92 0 0 0 .93-.93v-1.751a.92.92 0 0 0-.93-.93h-3.937zm38.884-3.884h-1.75v-5.635h1.695c1.204 0 2.188.985 2.188 2.188v1.313c0 1.204-.985 2.134-2.133 2.134z" fill="#e3e3e3"/><path d="M98.932 30.645v1.696h1.75c1.039 0 1.859-.711 2.078-1.696h-3.828z" fill="#fff"/><path d="M111.454 36.554h.984a.49.49 0 0 0 .492-.492v-.711a.49.49 0 0 0-.492-.492h-.984a.49.49 0 0 0-.492.492v.657c0 .273.218.547.492.547z" fill="#ff8840"/><path d="M138.304 48.808c-.055 1.094.328 1.97.93 2.024s1.148-.766 1.203-1.86-.328-1.969-.93-2.024c-.547-.055-1.094.766-1.203 1.86z" fill="#1d0000"/></svg>