<svg xmlns="http://www.w3.org/2000/svg" xmlns:xlink="http://www.w3.org/1999/xlink" width="164" height="80" fill="none"><path d="M78.545 35.813h-1.738c-.772 0-1.416-.509-1.545-1.273l-.966-4.583c-.193-.955.515-1.91 1.545-1.91h.257c1.609 0 3.026 1.146 3.412 2.737l.644 3.119c.193 1.018-.579 1.91-1.609 1.91zm-21.116 1.464h-1.738c-.773 0-1.416-.509-1.545-1.273l-.966-4.583c-.193-.955.515-1.91 1.545-1.91h.258c1.609 0 3.026 1.146 3.412 2.737l.644 3.119c.129.955-.579 1.91-1.609 1.91z" fill="#ca8e59"/><path d="M144.079 39.696a43.49 43.49 0 0 0-15.128-4.901l-23.69-3.247-8.69-4.329A50.45 50.45 0 0 0 74.233 22h-5.794c-6.759 0-13.519 1.209-19.892 3.501l-12.682 4.583-11.716 1.146-1.352 1.719c.515 1.464.322 3.119-.644 5.029l-2.189 2.292v5.156l2.317 4.647 18.926 3.183 94.244.7 10.365-1.846v-9.548c-.065-1.209-.709-2.292-1.739-2.864zm-95.274-7.893l-1.352-2.355c-.386-.7-.064-1.655.708-1.91l1.288-.446c6.116-2.228 12.103-2.992 19.119-3.374l6.244-.064c7.403 0 14.291 1.464 20.857 4.838l8.626 5.029-55.491-1.719z" fill="#e3e3e3"/><path d="M126.763 40.269c-33.217-1.146-62.508-1.464-83.752 0v1.337l-19.055-1.082c-.901-.064-1.352-1.146-.708-1.782l.064-.191c.966-1.91 1.288-3.692.901-5.283l1.159-1.337 10.751-.573 68.173 2.037 24.462 2.674c5.15.7 10.107 2.292 14.678 4.774.644.318 1.03 1.018 1.03 1.719 0 .509-.451.955-.966.955h-16.673v-3.246h-.064zm-66.5 6.62l36.307.509c1.287 0 2.639.127 3.926.382l8.755 1.719c.258.064.258.446-.064.446l-45.963-1.082c-1.288-.064-2.446-.828-2.961-1.973z" fill="#fff"/><path d="M48.159 27.474l1.287-.446c6.116-2.228 12.103-2.992 19.119-3.374l6.244-.064c7.403 0 14.291 1.464 20.857 4.838l8.626 5.029-6.824-.191-6.051-3.501c-5.214-2.61-10.622-3.819-16.415-3.819l-4.892.064c-5.536.255-10.236.828-15.064 2.61l-1.03.382c-.644.255-.901.955-.579 1.528l.837 1.464-5.472-.127-1.352-2.355c-.451-.827-.129-1.719.708-2.037z" fill="#404752"/><path d="M113.052 51.282c0-.636.065-1.209.129-1.846.901-6.938 5.665-11.394 12.167-11.394 6.18 0 10.75 4.074 11.587 10.44.129.955.129 1.91.129 2.864h-24.012v-.064zm-79.952.127c.258-7.957 5.794-14.004 12.875-14.004 6.309 0 11.459 5.092 11.459 11.331v.891 1.782H33.1z" fill="#e3e3e3"/><g fill="#d8d8d8"><path d="M116.333 38.169c-35.02-2.164-64.761-3.183-90.897-3.056v-.636c26.2-.064 55.942.891 90.961 3.055l-.064.637z"/><path d="M106.293 50.9l-.644-.127c.709-4.456.966-8.975.773-13.431-.837-1.846-1.803-3.056-2.833-3.756l.387-.509c1.158.764 2.188 2.101 3.09 4.074v.127c.257 4.456 0 9.039-.773 13.622zm-29.421-.064l-.386-11.585c-.064-2.228-.451-4.52-1.159-6.684l.644-.191a24.78 24.78 0 0 1 1.159 6.811l.386 11.585-.644.064z"/><path d="M114.272 51.473l-51.177-.891c-1.996-.064-3.862-1.082-4.828-2.801L48.868 31.74l.579-.318 9.399 16.041c.901 1.528 2.511 2.483 4.249 2.483l51.177.891v.636zm-73.13-11.077l-9.978-.382c-.966-.064-1.867-.446-2.511-1.082L26.4 36.577l.451-.446 2.253 2.355c.515.573 1.288.891 2.06.891l10.043.382-.064.637zm89.995 1.274l-.064-.637 11.008-.955.515-1.146.579.318-.708 1.4-11.33 1.019zm9.849 10.566a2.09 2.09 0 0 1-1.352-.509c-.386-.382-.644-.891-.644-1.464v-2.292-.064c.451-1.91 2.189-3.31 4.249-3.31h2.575v.636h-2.575a3.78 3.78 0 0 0-3.605 2.737v2.228c0 .382.193.7.451.955s.644.382 1.03.318l4.635-.446.064.637-4.635.446c-.064.127-.129.127-.193.127z"/></g><path d="M114.527 53.828a13.43 13.43 0 0 1-.129-4.265c.772-5.984 4.828-10.249 10.879-10.249 5.215 0 9.528 3.31 10.3 9.294.258 1.782.129 3.628-.257 5.347l-20.793-.127zm-80.21-1.719c0-.191.064-.446.064-.7.193-7.575 5.472-12.795 11.587-12.795 5.601 0 10.171 4.52 10.171 10.058 0 1.719.064 3.31-.193 4.647l-14.742-.064-6.888-1.146z" fill="#1d0000"/><path d="M45.971 57.393c4.871 0 8.819-3.904 8.819-8.721s-3.949-8.721-8.819-8.721-8.819 3.905-8.819 8.721 3.949 8.721 8.819 8.721z" fill="#736e68"/><g fill="#3c3c3c"><path d="M54.79 48.672c0 4.838-3.927 8.784-8.819 8.784s-8.819-3.883-8.819-8.721H54.79v-.064z"/><path d="M53.491 49.884c.678-4.129-2.158-8.02-6.334-8.69s-8.111 2.135-8.789 6.264 2.158 8.02 6.334 8.69 8.111-2.134 8.789-6.264z"/><path d="M53.631 48.608v.064c0 4.201-3.412 7.575-7.661 7.575s-7.66-3.374-7.66-7.575v-.064h15.321z"/></g><use xlink:href="#B" fill="#c4ccd9"/><path d="M45.969 42.561c3.412 0 6.18 2.737 6.18 6.111H39.725c0-3.374 2.768-6.111 6.244-6.111z" fill="#b0abab"/><path d="M45.97 52.427c2.098 0 3.798-1.681 3.798-3.756s-1.7-3.756-3.798-3.756-3.798 1.681-3.798 3.756 1.7 3.756 3.798 3.756z" fill="#565657"/><path d="M125.279 57.393c4.871 0 8.819-3.904 8.819-8.721s-3.948-8.721-8.819-8.721-8.819 3.905-8.819 8.721 3.948 8.721 8.819 8.721z" fill="#736e68"/><g fill="#3c3c3c"><path d="M134.098 48.672c0 4.838-3.927 8.784-8.819 8.784s-8.819-3.883-8.819-8.721h17.638v-.064z"/><path d="M132.719 50.43c.967-4.073-1.588-8.15-5.707-9.106s-8.241 1.57-9.208 5.643 1.587 8.15 5.706 9.106 8.242-1.57 9.209-5.643z"/><path d="M132.939 48.608v.064c0 4.201-3.412 7.575-7.661 7.575s-7.66-3.374-7.66-7.575v-.064h15.321z"/></g><use xlink:href="#B" x="79.308" fill="#c4ccd9"/><path d="M125.28 42.561c3.412 0 6.18 2.737 6.18 6.111H119.1c0-3.374 2.768-6.111 6.18-6.111z" fill="#b0abab"/><path d="M129.08 48.672c0 2.037-1.674 3.756-3.798 3.756-2.06 0-3.798-1.655-3.798-3.756s1.673-3.756 3.798-3.756c2.124.064 3.798 1.719 3.798 3.756z" fill="#565657"/><path d="M143.308 46.316h1.159v3.692l-2.961.573c-.644.127-1.223-.446-1.094-1.082l.193-1.019c.257-1.273 1.352-2.164 2.703-2.164z" fill="#1d0000"/><path d="M138.992 37.978l1.288.573c1.352.636 3.412 1.91 3.412 3.374h-3.477l-6.501-4.838 5.278.891z" fill="#e3e3e3"/><path d="M137.254 39.696l-3.54-2.673 5.278.955 1.288.573c.579.255 1.352.7 1.995 1.146h-5.021z" fill="#4a524a"/><path d="M137.45 37.723v2.101l-3.669-2.801 3.669.7z" fill="#ff8840"/><path d="M21.19 38.996l.966-1.019c.901-1.782 1.159-3.374.708-4.774h3.669c1.159 0 1.867 1.273 1.223 2.228l-.644.955a5.93 5.93 0 0 1-4.699 2.61H21.19z" fill="#e0ebe5"/><path d="M23.059 34.54c0-.446-.064-.891-.193-1.337h3.669c.837 0 1.416.636 1.416 1.337h-4.892z" fill="#d10018"/><path d="M22.156 37.978c.258-.573.515-1.082.644-1.591h4.313a5.93 5.93 0 0 1-4.699 2.61l-1.223.064.966-1.082z" fill="#ff8840"/><path d="M74.361 23.591h-1.481l1.288 8.975h2.832l-2.639-8.975z" fill="#404752"/><path d="M77.774 37.15c.193.637 1.094 1.146 2.189 1.209s2.06-.382 2.317-1.018l-4.506-.191z" fill="#e3e3e3"/><path d="M77.841 36.132c.257-.637 1.223-1.082 2.317-1.018s1.996.573 2.189 1.209l-4.506-.191z" fill="#d8d8d8"/><path d="M53.828 36.132c.193.636 1.094 1.146 2.189 1.209s2.06-.382 2.317-1.018l-4.506-.191z" fill="#e3e3e3"/><path d="M53.895 35.113c.258-.636 1.223-1.082 2.317-1.019s1.996.573 2.189 1.21l-4.506-.191z" fill="#d8d8d8"/><path d="M118.653 38.487l-2.125-.127c-.193 0-.321-.127-.257-.318v-.382c0-.191.129-.318.322-.255l2.124.127c.193 0 .322.127.258.318v.382c0 .127-.193.255-.322.255z" fill="#ff8840"/><defs ><path id="B" d="M45.972 54.783c3.413 0 6.18-2.736 6.18-6.111s-2.767-6.111-6.18-6.111-6.18 2.736-6.18 6.111 2.767 6.111 6.18 6.111z"/></defs></svg>