<svg xmlns="http://www.w3.org/2000/svg" width="164" height="80" fill="none"><g fill="#736e68"><path d="M47.257 20.953l-.492.491 38.586.393-.786-.491-37.308-.393z"/><path d="M80.633 19.676c1.081.049 2.9 1.031 3.932 1.67l3.834.049s-3.588-2.112-5.456-2.161c-7.865-.933-31.852-.933-36.521-.245-.688.098-2.703 1.915-2.703 1.915l3.539.049c.541-.54 1.475-1.326 1.819-1.424 4.031-.737 24.774-.737 31.557.147z"/><path d="M66.779 18.655l-1.966-.021-.012 1.179 1.966.02.012-1.178z"/></g><path d="M76.604 21.198l-1.573-.049 1.425 10.215 1.917.245-1.769-10.412z" fill="#ca8e59"/><path d="M127.624 41.089c-.099-1.326-.344-2.456-.787-3.389-.295-.639-.54-1.915-.983-2.357-2.851-1.621-11.846-2.75-20.3-3.241l-9.831-7.662c-3.539-2.554-7.766-4.027-12.141-4.125-7.324-.393-14.55-.589-21.529-.54-3.441-.049-13.763.54-18.531.884-1.18.098-2.409 1.621-2.31 1.473l9.241-.344-3.244 8.595-7.963-.049-1.524 1.915-.786 7.416-.885.933-.049 4.027c-.049 3.536 2.802 6.434 6.341 6.483l79.974 1.424h.541c3.342.049 6.046-2.652 6.095-5.943l.049-4.322-1.376-1.179zm-29.591-8.251l-31.557-2.014c-3.343-.196-6.685-.835-9.88-1.866l-2.605-.835c-.59-.197-.885-.786-.737-1.375l1.229-4.371a1.29 1.29 0 0 1 .885-.786c4.571-.835 23.053-.491 27.526 0 5.358.589 7.324 1.768 10.617 4.175l7.078 6.139-2.556.933z" fill="#e3e3e3"/><path d="M127.673 47.277h-.934c-.197 0-.393-.098-.492-.196a.63.63 0 0 1-.196-.491v-1.621c0-.393.344-.688.737-.688h.934c.393 0 .688.344.688.737v1.621c-.049.344-.344.639-.737.639zm-.885-2.505c-.098 0-.147.049-.147.147v1.621c0 .049 0 .098.049.098.049.049.049.049.098.049h.885c.098 0 .147-.049.147-.147V44.92c0-.098-.049-.147-.147-.147h-.885z" fill="#d8d8d8"/><path d="M47.896 28.614l-2.9.147c-1.868.049-4.178.246-5.751 1.424l-.049.147 7.914.049.787-1.768zm-3.588-5.451l5.505.098h.098l.59-1.473-9.29.344c.836.786 1.671.933 3.097 1.031z" fill="#ca8e59"/><path d="M41.21 22.132c-.197.295-.295.589-.393.982l-1.524 7.22 7.914.049 3.244-8.595-9.241.344z" fill="#e3e3e3"/><path d="M128.705 48.21c-.737 2.554-3.097 4.42-5.849 4.371h-.541l-79.973-1.473c-3.539-.049-6.39-2.947-6.341-6.483v-.442l92.704 4.027z" fill="#c1c1c1"/><g fill="#ca8e59"><path d="M75.028 32.003l4.571.049c0-.147.049-.344 0-.491l-.59-2.996a3.21 3.21 0 0 0-3.146-2.603h-.197c-.934 0-1.671.835-1.475 1.768l.836 4.273zm-19.759-2.799c1.622.638 3.244 1.179 4.965 1.473l-.442-2.357c-.295-1.523-1.622-2.603-3.146-2.603h-.197c-.934 0-1.671.835-1.475 1.768l.295 1.719z"/><path d="M53.992 28.123l2.605.835c3.195 1.031 6.488 1.621 9.88 1.866l31.606 2.014 2.556-.933-7.127-6.139c-3.293-2.407-5.21-3.585-10.617-4.175-4.473-.491-22.955-.835-27.526 0a1.29 1.29 0 0 0-.885.786l-1.229 4.371c-.197.589.147 1.179.737 1.375zm1.77-.982l1.131-4.027a1.02 1.02 0 0 1 .786-.688c4.129-.737 20.841-.442 24.872 0 4.866.54 6.636 1.621 9.585 3.782l6.39 5.599-2.31.835-28.559-1.866c-3.048-.196-5.997-.737-8.897-1.67l-2.359-.737c-.541-.147-.786-.737-.639-1.228z"/></g><path d="M51.681 26.257l1.278-3.094s.098-.147.148-.295c.295-.639.934-1.031 1.622-.933a.95.95 0 0 0-.246.442l-1.229 4.371c-.197.589.148 1.179.737 1.375l2.605.835c3.195 1.031 6.488 1.621 9.88 1.866l31.606 2.014 1.229-.442c.295.835-.098 1.277-.983 1.572l-31.95-1.915c-3.49-.196-6.931-.835-10.273-1.768l-2.605-.786c-.688-.197-1.278-.639-1.622-1.277s-.393-1.326-.197-1.964zM36.936 39.665v-.098l3.539.049c.295 0 .541.246.541.54s-.246.54-.541.54l-4.424-.049.885-.982zm13.416-8.939c1.081.147.983 1.768-.147 1.719-3.834-.098-8.061.098-12.583.54l.098-.737 1.524-1.915 7.078.049c1.376 0 2.753.147 4.031.344zm48.075 12.131c-.197-.147-35.096-.737-35.096-.737l-.098.098c-.344.442-.049 1.13.541 1.13l35.44 1.375c.492 0 .737-.639.344-.933l-1.13-.933z" fill="#fff"/><g fill="#d8d8d8"><path d="M98.374 42.219c-.197.147-35.096-.737-35.096-.737l-.098-.098c-.344-.442 0-1.13.59-1.13l35.489.147c.492 0 .737.638.295.933l-1.18.884z"/><path d="M76.109 45.804l-.492-10.559c-.049-.982-.688-3.88-.688-3.929l.492-.098c.049.098.688 2.996.737 4.027l.492 10.559h-.541zm26.052 1.031h-.491l.344-8.693c.049-1.67-.295-3.34-1.081-4.862l-.738-1.179.443-.246.737 1.228a10.8 10.8 0 0 1 1.131 5.108l-.345 8.644zM42.082 35.953l-.39.299 3.379 4.405.39-.299-3.379-4.405zM53.45 39.37l-.983-3.732a9.95 9.95 0 0 1 .442-6.532l.541-1.277.442.196-.541 1.277a9.38 9.38 0 0 0-.393 6.237l.983 3.733-.492.098zm71.222-1.424l-.344-1.326c-1.425-1.768-16.614-2.652-18.678-2.603h-.099l-2.457-2.259.344-.344 2.31 2.161c1.72 0 17.548.737 19.023 2.848l.049.098.344 1.375-.492.049z"/></g><path d="M91.398 22.623h1.425c.983.491 1.966 1.13 2.9 1.768l9.438 7.367h-2.016c-4.276-3.536-8.454-7.367-11.748-9.135z" fill="#435268"/><path d="M103.24 47.572c.197-4.518 4.031-8.005 8.504-7.809l4.031.147c4.374.147 7.815 3.782 7.766 8.153l-.049 4.518c-.197 0-.443.049-.688.049h-.541l-19.318-.344.295-4.715zm-60.899 3.536a5.89 5.89 0 0 1-1.622-.245l.197-4.518c.197-4.518 4.031-8.005 8.504-7.809l4.031.147c4.375.147 7.816 3.782 7.766 8.153l-.049 4.617-18.826-.344z" fill="#404752"/><path d="M122.314 52.581l-18.236-.344.197-4.617c.196-3.831 3.342-6.827 7.176-6.777h.197l4.03.147c3.785.147 6.735 3.241 6.735 7.023l-.05 4.518-.049.049zm-79.972-1.473c-.197 0-.344 0-.541-.049l.197-4.666c.197-3.831 3.343-6.827 7.177-6.777h.197l4.031.147c3.785.147 6.734 3.241 6.734 7.023l-.049 4.617-17.745-.295z" fill="#1d0000"/><path d="M52.855 59.589c4.687-1.055 7.631-5.707 6.575-10.391s-5.712-7.624-10.399-6.569-7.631 5.707-6.575 10.391 5.712 7.624 10.399 6.569z" fill="#736e68"/><g fill="#3c3c3c"><path d="M42.243 51.01c-.049 4.813 3.834 8.742 8.602 8.791 4.817.049 8.749-3.831 8.799-8.595l-17.401-.197z"/><path d="M43.422 51.01c-.049 4.174 3.293 7.563 7.471 7.612s7.57-3.291 7.619-7.465-3.293-7.563-7.471-7.612-7.57 3.29-7.619 7.465z"/><path d="M43.422 50.911v.098c-.049 4.175 3.293 7.563 7.471 7.612s7.57-3.291 7.619-7.465v-.098l-15.09-.147z"/></g><path d="M51.656 57.159c3.343-.392 5.735-3.419 5.342-6.759s-3.422-5.73-6.765-5.338-5.735 3.419-5.342 6.759 3.422 5.73 6.765 5.338z" fill="#c4ccd9"/><path d="M51.039 45.018a6.03 6.03 0 0 0-6.144 6.041l12.19.147c0-3.389-2.703-6.188-6.046-6.188z" fill="#b0abab"/><path d="M47.254 51.059c0 2.063 1.622 3.733 3.687 3.733s3.736-1.621 3.736-3.683-1.622-3.733-3.687-3.733-3.736 1.621-3.736 3.683z" fill="#565657"/><path d="M114.642 59.805c4.753-.704 8.035-5.124 7.33-9.873a8.7 8.7 0 0 0-9.881-7.325c-4.753.704-8.036 5.124-7.331 9.873a8.7 8.7 0 0 0 9.882 7.325z" fill="#736e68"/><g fill="#3c3c3c"><path d="M104.665 51.108a8.68 8.68 0 0 0 8.601 8.791c4.818.049 8.75-3.782 8.799-8.595l-17.4-.197z"/><path d="M115.086 58.567c4.072-.948 6.603-5.015 5.654-9.083s-5.019-6.597-9.091-5.649-6.602 5.015-5.653 9.083a7.57 7.57 0 0 0 9.09 5.649z"/><path d="M105.797 51.059v.098c-.049 4.175 3.294 7.563 7.472 7.612s7.57-3.291 7.619-7.465v-.098l-15.091-.147z"/></g><path d="M107.223 51.157a6.03 6.03 0 0 0 6.046 6.139 6.03 6.03 0 0 0 6.145-6.041 6.03 6.03 0 0 0-6.046-6.139c-3.343-.049-6.096 2.652-6.145 6.041z" fill="#c4ccd9"/><path d="M113.414 45.116a6.03 6.03 0 0 0-6.144 6.041l12.19.147c0-3.389-2.704-6.188-6.046-6.188z" fill="#b0abab"/><path d="M109.633 51.157c0 2.063 1.622 3.733 3.686 3.733s3.736-1.621 3.736-3.683-1.622-3.733-3.686-3.733c-2.016 0-3.736 1.621-3.736 3.683z" fill="#565657"/><path d="M96.166 29.056l-.049 3.094 1.868.098 1.524-.54-3.342-2.652z" fill="#c4ccd9"/><path d="M95.182 32.15h-1.819l.049-3.782h.786a2.35 2.35 0 0 1 2.359 2.456c.049.737-.59 1.326-1.376 1.326z" fill="#e3e3e3"/><path d="M96.413 29.891c-.344-.884-1.18-1.523-2.212-1.523h-.786v1.523h2.998z" fill="#fff"/><path d="M74.391 21.149l-1.524-.049 1.376 10.264 1.868.049-1.72-10.264zm-15.041.049h-1.229l-1.524 7.76 1.769.54.983-8.3z" fill="#404752"/><path d="M127.622 41.138c-.098-1.375-.344-2.505-.786-3.438l-4.719-.049 2.065 3.438 3.44.049z" fill="#e3e3e3"/><path d="M126.394 39.272c0 .737-.246 1.375-.541 1.375s-.541-.639-.541-1.375.246-1.375.541-1.375c.344 0 .541.639.541 1.375z" fill="#617797"/><path opacity=".23" d="M127.377 39.174c-.148-.54-.295-1.031-.541-1.522l-4.719-.049.885 1.523 4.375.049z" fill="#00659a"/><path d="M124.968 37.651h-2.851l2.065 3.438h.737l.049-3.438z" fill="#ff8840"/><path d="M39 32.445l-1.278-.049-.492 4.42 4.866-.491v-.197c.197-1.965-1.229-3.585-3.097-3.683z" fill="#d10018"/><path d="M37.476 34.606l-.246 2.161 4.866-.491v-.196c.049-.491 0-.982-.197-1.424l-4.424-.049z" fill="#e3e3e3"/><path d="M121.58 38.683c.049-.147.099-.344.099-.54 0-.688-.492-1.277-1.131-1.375-5.456-.933-10.322-.933-14.599-.196-.688.098-1.179.688-1.179 1.375 0 .197.049.344.098.54 4.964-.687 10.519-.687 16.712.197zm-44.389-3.88c.147.442.737.835 1.524.835.786.049 1.425-.245 1.622-.688l-3.146-.147z" fill="#fff"/><path d="M77.242 34.115c.197-.442.836-.737 1.622-.687s1.376.393 1.524.835l-3.146-.147z" fill="#d8d8d8"/><path d="M53.992 33.133c.147.442.737.835 1.524.835.786.049 1.425-.246 1.622-.688l-3.146-.147z" fill="#fff"/><path d="M53.992 32.445c.197-.442.836-.737 1.622-.688s1.376.393 1.524.835l-3.146-.147z" fill="#d8d8d8"/></svg>